<svg xmlns="http://www.w3.org/2000/svg" version="1.1" xmlns:xlink="http://www.w3.org/1999/xlink" xmlns:svgjs="http://svgjs.dev/svgjs" width="256" height="256"><svg xmlns="http://www.w3.org/2000/svg" xmlns:xlink="http://www.w3.org/1999/xlink" width="256" zoomAndPan="magnify" viewBox="0 0 192 191.999996" height="256" preserveAspectRatio="xMidYMid meet" version="1.0"><defs><clipPath id="SvgjsClipPath1003"><path d="M 96 0 C 42.980469 0 0 42.980469 0 96 C 0 149.019531 42.980469 192 96 192 C 149.019531 192 192 149.019531 192 96 C 192 42.980469 149.019531 0 96 0 Z M 96 0 " clip-rule="nonzero"></path></clipPath><clipPath id="SvgjsClipPath1002"><path d="M 51.433594 51.433594 L 140.683594 51.433594 L 140.683594 140.683594 L 51.433594 140.683594 Z M 51.433594 51.433594 " clip-rule="nonzero"></path></clipPath></defs><g clip-path="url(#74fd0ee23d)"><rect x="-19.2" width="230.4" fill="#8c81f9" y="-19.2" height="230.399995" fill-opacity="1"></rect></g><g clip-path="url(#6009d3747f)"><path fill="#ffffff" d="M 96 51.433594 C 71.425781 51.433594 51.433594 71.425781 51.433594 96 C 51.433594 106.628906 55.226562 116.878906 62.128906 124.949219 L 62.128906 138.78125 C 62.128906 139.769531 62.925781 140.566406 63.910156 140.566406 L 96 140.566406 C 120.574219 140.566406 140.566406 120.574219 140.566406 96 C 140.566406 71.425781 120.574219 51.433594 96 51.433594 Z M 96 51.433594 " fill-opacity="1" fill-rule="nonzero"></path></g></svg><style>@media (prefers-color-scheme: light) { :root { filter: none; } }
@media (prefers-color-scheme: dark) { :root { filter: none; } }
</style></svg>