<svg xmlns="http://www.w3.org/2000/svg" xmlns:xlink="http://www.w3.org/1999/xlink" width="250" zoomAndPan="magnify" viewBox="0 0 187.5 44.999999" height="60" preserveAspectRatio="xMidYMid meet" version="1.0"><defs><g/><clipPath id="9c5bfc93d5"><path d="M 0.769531 4.546875 L 36.675781 4.546875 L 36.675781 40.453125 L 0.769531 40.453125 Z M 0.769531 4.546875 " clip-rule="nonzero"/></clipPath><clipPath id="ee85369a08"><path d="M 18.722656 4.546875 C 8.808594 4.546875 0.769531 12.585938 0.769531 22.5 C 0.769531 32.414062 8.808594 40.453125 18.722656 40.453125 C 28.636719 40.453125 36.675781 32.414062 36.675781 22.5 C 36.675781 12.585938 28.636719 4.546875 18.722656 4.546875 Z M 18.722656 4.546875 " clip-rule="nonzero"/></clipPath><clipPath id="d9ddde0032"><path d="M 10.386719 14.167969 L 27.078125 14.167969 L 27.078125 30.855469 L 10.386719 30.855469 Z M 10.386719 14.167969 " clip-rule="nonzero"/></clipPath></defs><g clip-path="url(#9c5bfc93d5)"><g clip-path="url(#ee85369a08)"><path fill="#8c81f9" d="M -2.820312 0.957031 L 40.265625 0.957031 L 40.265625 44.042969 L -2.820312 44.042969 Z M -2.820312 0.957031 " fill-opacity="1" fill-rule="nonzero"/></g></g><g clip-path="url(#d9ddde0032)"><path fill="#ffffff" d="M 18.722656 14.167969 C 14.125 14.167969 10.386719 17.90625 10.386719 22.5 C 10.386719 24.488281 11.097656 26.40625 12.386719 27.914062 L 12.386719 30.5 C 12.386719 30.683594 12.535156 30.832031 12.722656 30.832031 L 18.722656 30.832031 C 23.316406 30.832031 27.054688 27.09375 27.054688 22.5 C 27.054688 17.90625 23.316406 14.167969 18.722656 14.167969 Z M 18.722656 14.167969 " fill-opacity="1" fill-rule="nonzero"/></g><g fill="#342744" fill-opacity="1"><g transform="translate(36.76232, 32.952314)"><g><path d="M 15.515625 0 L 11.546875 0 L 11.546875 -8.5 C 11.546875 -10.601562 10.765625 -11.65625 9.203125 -11.65625 C 8.085938 -11.65625 7.28125 -11.273438 6.78125 -10.515625 C 6.289062 -9.765625 6.046875 -8.539062 6.046875 -6.84375 L 6.046875 0 L 2.078125 0 L 2.078125 -20.25 L 6.046875 -20.25 L 6.046875 -16.125 C 6.046875 -15.800781 6.019531 -15.046875 5.96875 -13.859375 L 5.875 -12.6875 L 6.078125 -12.6875 C 6.960938 -14.113281 8.367188 -14.828125 10.296875 -14.828125 C 12.003906 -14.828125 13.300781 -14.363281 14.1875 -13.4375 C 15.070312 -12.519531 15.515625 -11.203125 15.515625 -9.484375 Z M 15.515625 0 "/></g></g></g><g fill="#342744" fill-opacity="1"><g transform="translate(54.282833, 32.952314)"><g><path d="M 11.328125 0 L 10.5625 -1.984375 L 10.453125 -1.984375 C 9.785156 -1.140625 9.097656 -0.550781 8.390625 -0.21875 C 7.679688 0.101562 6.757812 0.265625 5.625 0.265625 C 4.226562 0.265625 3.128906 -0.132812 2.328125 -0.9375 C 1.523438 -1.738281 1.125 -2.875 1.125 -4.34375 C 1.125 -5.894531 1.660156 -7.035156 2.734375 -7.765625 C 3.816406 -8.492188 5.445312 -8.898438 7.625 -8.984375 L 10.15625 -9.0625 L 10.15625 -9.703125 C 10.15625 -11.171875 9.398438 -11.90625 7.890625 -11.90625 C 6.722656 -11.90625 5.351562 -11.554688 3.78125 -10.859375 L 2.46875 -13.53125 C 4.144531 -14.40625 6.003906 -14.84375 8.046875 -14.84375 C 9.992188 -14.84375 11.488281 -14.414062 12.53125 -13.5625 C 13.570312 -12.71875 14.09375 -11.429688 14.09375 -9.703125 L 14.09375 0 Z M 10.15625 -6.734375 L 8.609375 -6.6875 C 7.460938 -6.65625 6.601562 -6.445312 6.03125 -6.0625 C 5.46875 -5.6875 5.1875 -5.109375 5.1875 -4.328125 C 5.1875 -3.203125 5.832031 -2.640625 7.125 -2.640625 C 8.039062 -2.640625 8.773438 -2.90625 9.328125 -3.4375 C 9.878906 -3.96875 10.15625 -4.671875 10.15625 -5.546875 Z M 10.15625 -6.734375 "/></g></g></g><g fill="#342744" fill-opacity="1"><g transform="translate(70.384529, 32.952314)"><g><path d="M 10.203125 -14.828125 C 10.742188 -14.828125 11.191406 -14.785156 11.546875 -14.703125 L 11.25 -10.984375 C 10.925781 -11.066406 10.535156 -11.109375 10.078125 -11.109375 C 8.804688 -11.109375 7.816406 -10.78125 7.109375 -10.125 C 6.398438 -9.476562 6.046875 -8.570312 6.046875 -7.40625 L 6.046875 0 L 2.078125 0 L 2.078125 -14.546875 L 5.09375 -14.546875 L 5.671875 -12.109375 L 5.875 -12.109375 C 6.320312 -12.921875 6.925781 -13.578125 7.6875 -14.078125 C 8.457031 -14.578125 9.296875 -14.828125 10.203125 -14.828125 Z M 10.203125 -14.828125 "/></g></g></g><g fill="#342744" fill-opacity="1"><g transform="translate(82.490084, 32.952314)"><g><path d="M 10.078125 0.265625 C 8.367188 0.265625 7.023438 -0.351562 6.046875 -1.59375 L 5.84375 -1.59375 C 5.976562 -0.382812 6.046875 0.3125 6.046875 0.5 L 6.046875 6.40625 L 2.078125 6.40625 L 2.078125 -14.546875 L 5.3125 -14.546875 L 5.875 -12.671875 L 6.046875 -12.671875 C 6.972656 -14.109375 8.347656 -14.828125 10.171875 -14.828125 C 11.890625 -14.828125 13.234375 -14.160156 14.203125 -12.828125 C 15.179688 -11.503906 15.671875 -9.660156 15.671875 -7.296875 C 15.671875 -5.742188 15.441406 -4.394531 14.984375 -3.25 C 14.523438 -2.101562 13.875 -1.226562 13.03125 -0.625 C 12.195312 -0.03125 11.210938 0.265625 10.078125 0.265625 Z M 8.90625 -11.65625 C 7.925781 -11.65625 7.207031 -11.351562 6.75 -10.75 C 6.300781 -10.144531 6.066406 -9.144531 6.046875 -7.75 L 6.046875 -7.328125 C 6.046875 -5.765625 6.273438 -4.644531 6.734375 -3.96875 C 7.203125 -3.289062 7.941406 -2.953125 8.953125 -2.953125 C 10.734375 -2.953125 11.625 -4.421875 11.625 -7.359375 C 11.625 -8.785156 11.40625 -9.859375 10.96875 -10.578125 C 10.53125 -11.296875 9.84375 -11.65625 8.90625 -11.65625 Z M 8.90625 -11.65625 "/></g></g></g><g fill="#342744" fill-opacity="1"><g transform="translate(99.359762, 32.952314)"><g><path d="M 1.90625 -18.3125 C 1.90625 -19.601562 2.628906 -20.25 4.078125 -20.25 C 5.515625 -20.25 6.234375 -19.601562 6.234375 -18.3125 C 6.234375 -17.695312 6.050781 -17.21875 5.6875 -16.875 C 5.332031 -16.53125 4.796875 -16.359375 4.078125 -16.359375 C 2.628906 -16.359375 1.90625 -17.007812 1.90625 -18.3125 Z M 6.046875 0 L 2.078125 0 L 2.078125 -14.546875 L 6.046875 -14.546875 Z M 6.046875 0 "/></g></g></g><g fill="#342744" fill-opacity="1"><g transform="translate(107.495222, 32.952314)"><g><path d="M 11.328125 0 L 10.5625 -1.984375 L 10.453125 -1.984375 C 9.785156 -1.140625 9.097656 -0.550781 8.390625 -0.21875 C 7.679688 0.101562 6.757812 0.265625 5.625 0.265625 C 4.226562 0.265625 3.128906 -0.132812 2.328125 -0.9375 C 1.523438 -1.738281 1.125 -2.875 1.125 -4.34375 C 1.125 -5.894531 1.660156 -7.035156 2.734375 -7.765625 C 3.816406 -8.492188 5.445312 -8.898438 7.625 -8.984375 L 10.15625 -9.0625 L 10.15625 -9.703125 C 10.15625 -11.171875 9.398438 -11.90625 7.890625 -11.90625 C 6.722656 -11.90625 5.351562 -11.554688 3.78125 -10.859375 L 2.46875 -13.53125 C 4.144531 -14.40625 6.003906 -14.84375 8.046875 -14.84375 C 9.992188 -14.84375 11.488281 -14.414062 12.53125 -13.5625 C 13.570312 -12.71875 14.09375 -11.429688 14.09375 -9.703125 L 14.09375 0 Z M 10.15625 -6.734375 L 8.609375 -6.6875 C 7.460938 -6.65625 6.601562 -6.445312 6.03125 -6.0625 C 5.46875 -5.6875 5.1875 -5.109375 5.1875 -4.328125 C 5.1875 -3.203125 5.832031 -2.640625 7.125 -2.640625 C 8.039062 -2.640625 8.773438 -2.90625 9.328125 -3.4375 C 9.878906 -3.96875 10.15625 -4.671875 10.15625 -5.546875 Z M 10.15625 -6.734375 "/></g></g></g><g fill="#342744" fill-opacity="1"><g transform="translate(123.596918, 32.952314)"><g><path d="M 7.984375 0.265625 C 3.460938 0.265625 1.203125 -2.222656 1.203125 -7.203125 C 1.203125 -9.671875 1.816406 -11.554688 3.046875 -12.859375 C 4.273438 -14.171875 6.039062 -14.828125 8.34375 -14.828125 C 10.03125 -14.828125 11.539062 -14.492188 12.875 -13.828125 L 11.703125 -10.765625 C 11.078125 -11.015625 10.492188 -11.21875 9.953125 -11.375 C 9.421875 -11.539062 8.882812 -11.625 8.34375 -11.625 C 6.28125 -11.625 5.25 -10.15625 5.25 -7.21875 C 5.25 -4.375 6.28125 -2.953125 8.34375 -2.953125 C 9.101562 -2.953125 9.804688 -3.050781 10.453125 -3.25 C 11.109375 -3.457031 11.765625 -3.78125 12.421875 -4.21875 L 12.421875 -0.8125 C 11.773438 -0.40625 11.125 -0.125 10.46875 0.03125 C 9.8125 0.1875 8.984375 0.265625 7.984375 0.265625 Z M 7.984375 0.265625 "/></g></g></g><g fill="#342744" fill-opacity="1"><g transform="translate(137.303536, 32.952314)"><g><path d="M 15.515625 0 L 11.546875 0 L 11.546875 -8.5 C 11.546875 -10.601562 10.765625 -11.65625 9.203125 -11.65625 C 8.085938 -11.65625 7.28125 -11.273438 6.78125 -10.515625 C 6.289062 -9.765625 6.046875 -8.539062 6.046875 -6.84375 L 6.046875 0 L 2.078125 0 L 2.078125 -20.25 L 6.046875 -20.25 L 6.046875 -16.125 C 6.046875 -15.800781 6.019531 -15.046875 5.96875 -13.859375 L 5.875 -12.6875 L 6.078125 -12.6875 C 6.960938 -14.113281 8.367188 -14.828125 10.296875 -14.828125 C 12.003906 -14.828125 13.300781 -14.363281 14.1875 -13.4375 C 15.070312 -12.519531 15.515625 -11.203125 15.515625 -9.484375 Z M 15.515625 0 "/></g></g></g><g fill="#342744" fill-opacity="1"><g transform="translate(154.82405, 32.952314)"><g><path d="M 11.328125 0 L 10.5625 -1.984375 L 10.453125 -1.984375 C 9.785156 -1.140625 9.097656 -0.550781 8.390625 -0.21875 C 7.679688 0.101562 6.757812 0.265625 5.625 0.265625 C 4.226562 0.265625 3.128906 -0.132812 2.328125 -0.9375 C 1.523438 -1.738281 1.125 -2.875 1.125 -4.34375 C 1.125 -5.894531 1.660156 -7.035156 2.734375 -7.765625 C 3.816406 -8.492188 5.445312 -8.898438 7.625 -8.984375 L 10.15625 -9.0625 L 10.15625 -9.703125 C 10.15625 -11.171875 9.398438 -11.90625 7.890625 -11.90625 C 6.722656 -11.90625 5.351562 -11.554688 3.78125 -10.859375 L 2.46875 -13.53125 C 4.144531 -14.40625 6.003906 -14.84375 8.046875 -14.84375 C 9.992188 -14.84375 11.488281 -14.414062 12.53125 -13.5625 C 13.570312 -12.71875 14.09375 -11.429688 14.09375 -9.703125 L 14.09375 0 Z M 10.15625 -6.734375 L 8.609375 -6.6875 C 7.460938 -6.65625 6.601562 -6.445312 6.03125 -6.0625 C 5.46875 -5.6875 5.1875 -5.109375 5.1875 -4.328125 C 5.1875 -3.203125 5.832031 -2.640625 7.125 -2.640625 C 8.039062 -2.640625 8.773438 -2.90625 9.328125 -3.4375 C 9.878906 -3.96875 10.15625 -4.671875 10.15625 -5.546875 Z M 10.15625 -6.734375 "/></g></g></g><g fill="#342744" fill-opacity="1"><g transform="translate(170.925746, 32.952314)"><g><path d="M 8.21875 -2.90625 C 8.90625 -2.90625 9.738281 -3.054688 10.71875 -3.359375 L 10.71875 -0.40625 C 9.726562 0.0390625 8.507812 0.265625 7.0625 0.265625 C 5.476562 0.265625 4.320312 -0.132812 3.59375 -0.9375 C 2.875 -1.738281 2.515625 -2.945312 2.515625 -4.5625 L 2.515625 -11.578125 L 0.609375 -11.578125 L 0.609375 -13.25 L 2.796875 -14.578125 L 3.9375 -17.65625 L 6.484375 -17.65625 L 6.484375 -14.546875 L 10.5625 -14.546875 L 10.5625 -11.578125 L 6.484375 -11.578125 L 6.484375 -4.5625 C 6.484375 -3.988281 6.640625 -3.566406 6.953125 -3.296875 C 7.273438 -3.035156 7.695312 -2.90625 8.21875 -2.90625 Z M 8.21875 -2.90625 "/></g></g></g></svg>